# xmcd
#
# Track frame offsets:
#	150
#	151950
#	180750
#	201678
#	224393
#	252397
#	274417
#
# Disc length: 4047 seconds
#
# Revision: 0
# Processed by: cddbd v1.4PL0 Copyright (c) Steve Scherf et al.
# Submitted via: dBpowerAMP V4.0
#
DISCID=680fcd07
DTITLE=Cd1 Session Scorpia - Dance club sessions
DYEAR=1998
DGENRE=Dance
TTITLE0=Session scorpia
TTITLE1=Dith Wemyd - Brothers and sisters feat. the new techno
TTITLE2=Dj Frank - Funkin' serious
TTITLE3=Funny F - Creator
TTITLE4=Pastis and Buenri - Adrenalin
TTITLE5=Dj Bart - Wanna play house
TTITLE6=Kimik - Drosofila melanogaster
EXTD=norl voor jimns
EXTT0=
EXTT1=
EXTT2=
EXTT3=
EXTT4=
EXTT5=
EXTT6=
PLAYORDER=
